<svg id="Layer_1" data-name="Layer 1" xmlns="http://www.w3.org/2000/svg" viewBox="0 0 416.5 355.5"><defs><style>.cls-1{fill:#0094a4;}.cls-2,.cls-3{fill:none;stroke-width:3px;}.cls-2{stroke:#ed1e24;}.cls-2,.cls-3,.cls-4{stroke-miterlimit:10;}.cls-3,.cls-4{stroke:#fff;}.cls-4{fill:#f8981d;}</style></defs><title>m</title><rect class="cls-1" width="416.5" height="355.5" rx="17.5" ry="17.5"/><path class="cls-2" d="M210,76.37" transform="translate(-112 -51)"/><rect class="cls-3" x="143.81" y="10.5" width="131.81" height="335.5" rx="12" ry="12"/><rect class="cls-3" x="275.19" y="10.5" width="131.81" height="335.5" rx="12" ry="12"/><rect class="cls-3" x="12" y="10.5" width="131.81" height="335.5" rx="12" ry="12"/><path class="cls-4" d="M434.25,88.13h-228A13.92,13.92,0,0,0,192.36,102v23.15a13.93,13.93,0,0,0,13.89,13.89h88.54V355.49a13.94,13.94,0,0,0,13.89,13.89h23.14a13.94,13.94,0,0,0,13.89-13.89V139.05h88.54a13.93,13.93,0,0,0,13.89-13.89V102A13.92,13.92,0,0,0,434.25,88.13Z" transform="translate(-112 -51)"/></svg>